# xmcd
#
# Track frame offsets:
#	150
#	19117
#	37060
#	52295
#	67807
#	82350
#	97470
#	110817
#	125405
#	140290
#	154625
#	169997
#	184932
#	200787
#
# Disc length: 2930 seconds
#
# Revision: 1
# Processed by: cddbd v1.5.2PL0 Copyright (c) Steve Scherf et al.
# Submitted via: audiograbber 1.83.01
#
DISCID=db0b700e
DTITLE=Sampler - Born On The Bayou - The Bluegrass Tribute to Creedence Clearwa
DTITLE=ter Revival
DYEAR=1900
DGENRE=Country
TTITLE0=Born On The Bayou
TTITLE1=Fortunate Son
TTITLE2=Bad Moon Rising
TTITLE3=Commotion
TTITLE4=Have You Ever Seen The Rain
TTITLE5=Suzie Q.
TTITLE6=Green River
TTITLE7=Proud Mary
TTITLE8=Who'll Stop The Rain
TTITLE9=Lookin' Out My Backdoor
TTITLE10=I Heard It Trough The Grapevine
TTITLE11=Travelin' Band
TTITLE12=Lodi
TTITLE13=Down On The Corner
EXTD=
EXTT0=
EXTT1=
EXTT2=
EXTT3=
EXTT4=
EXTT5=
EXTT6=
EXTT7=
EXTT8=
EXTT9=
EXTT10=
EXTT11=
EXTT12=
EXTT13=
PLAYORDER=
